<svg xmlns="http://www.w3.org/2000/svg" width="17.262" height="16.915" viewBox="0 0 17.262 16.915">
  <g id="ICON_-_Instagram" data-name="ICON - Instagram" transform="translate(0 -0.005)">
    <path id="Fill_1" data-name="Fill 1" d="M8.631,16.916c-2.329,0-2.636-.01-3.559-.051a6.484,6.484,0,0,1-2.1-.393A4.232,4.232,0,0,1,1.449,15.5a4.138,4.138,0,0,1-1-1.5,6.133,6.133,0,0,1-.4-2.053C.01,11.044,0,10.744,0,8.457S.01,5.871.052,4.971a6.123,6.123,0,0,1,.4-2.053,4.149,4.149,0,0,1,1-1.5A4.242,4.242,0,0,1,2.977.444a6.487,6.487,0,0,1,2.1-.392C6,.01,6.3,0,8.631,0s2.636.01,3.559.051a6.487,6.487,0,0,1,2.1.392,4.242,4.242,0,0,1,1.528.976,4.143,4.143,0,0,1,1,1.5,6.121,6.121,0,0,1,.4,2.053c.042.9.052,1.2.052,3.487s-.01,2.586-.052,3.488a6.13,6.13,0,0,1-.4,2.053,4.132,4.132,0,0,1-1,1.5,4.232,4.232,0,0,1-1.528.976,6.484,6.484,0,0,1-2.1.393C11.267,16.906,10.96,16.916,8.631,16.916Zm0-15.392c-2.3,0-2.57.009-3.488.049a4.855,4.855,0,0,0-1.6.292,2.675,2.675,0,0,0-.993.633A2.611,2.611,0,0,0,1.9,3.47a4.6,4.6,0,0,0-.3,1.571c-.042.9-.05,1.164-.05,3.417s.009,2.522.05,3.418a4.611,4.611,0,0,0,.3,1.57,2.625,2.625,0,0,0,.645.972,2.675,2.675,0,0,0,.993.633,4.854,4.854,0,0,0,1.6.292c.9.04,1.173.049,3.488.049s2.586-.008,3.488-.049a4.855,4.855,0,0,0,1.6-.292,2.669,2.669,0,0,0,.992-.633,2.617,2.617,0,0,0,.646-.972,4.627,4.627,0,0,0,.3-1.57c.042-.9.05-1.164.05-3.418s-.009-2.521-.05-3.417a4.613,4.613,0,0,0-.3-1.571,2.6,2.6,0,0,0-.646-.972,2.669,2.669,0,0,0-.992-.633,4.855,4.855,0,0,0-1.6-.292C11.2,1.532,10.926,1.524,8.631,1.524Z" transform="translate(0 0.005)" fill="#fff"/>
    <path id="Fill_4" data-name="Fill 4" d="M4.433,8.686A4.393,4.393,0,0,1,0,4.343,4.394,4.394,0,0,1,4.433,0,4.393,4.393,0,0,1,8.864,4.343,4.393,4.393,0,0,1,4.433,8.686Zm0-7.162a2.852,2.852,0,0,0-2.877,2.82A2.852,2.852,0,0,0,4.433,7.162,2.851,2.851,0,0,0,7.309,4.343,2.852,2.852,0,0,0,4.433,1.524Z" transform="translate(4.199 4.12)" fill="#fff"/>
    <path id="Fill_5" data-name="Fill 5" d="M2.071,1.015A1.025,1.025,0,0,1,1.036,2.03,1.025,1.025,0,0,1,0,1.015,1.025,1.025,0,0,1,1.036,0,1.025,1.025,0,0,1,2.071,1.015" transform="translate(12.202 2.933)" fill="#fff"/>
  </g>
</svg>
