<svg id="link" xmlns="http://www.w3.org/2000/svg" width="26" height="24.96" viewBox="0 0 26 24.96">
  <g id="flaticon1552967497-svg">
    <path id="Path" d="M15.451,0H5.943A1.153,1.153,0,0,0,4.754,1.114,1.153,1.153,0,0,0,5.943,2.229h6.639L.348,13.7a1.066,1.066,0,0,0,0,1.576,1.226,1.226,0,0,0,.84.326,1.226,1.226,0,0,0,.84-.326L14.263,3.8v6.224a1.191,1.191,0,0,0,2.377,0V1.114A1.153,1.153,0,0,0,15.451,0Z" transform="translate(9.36)" fill="#98c03c"/>
    <path id="Path-2" data-name="Path" d="M19.644,6.933a1.156,1.156,0,0,0-1.156,1.156v10.4H2.311V2.311h10.4a1.156,1.156,0,1,0,0-2.311H1.156A1.156,1.156,0,0,0,0,1.156V19.644A1.156,1.156,0,0,0,1.156,20.8H19.644A1.156,1.156,0,0,0,20.8,19.644V8.089A1.156,1.156,0,0,0,19.644,6.933Z" transform="translate(0 4.16)" fill="#98c03c"/>
  </g>
</svg>
