<svg xmlns="http://www.w3.org/2000/svg" width="14.517" height="14.125" viewBox="0 0 14.517 14.125">
  <g id="Group_2" data-name="Group 2" transform="translate(-1.552 -0.395)">
    <g id="Group_8" data-name="Group 8" transform="translate(0.9)">
      <path id="Path" d="M9.556,10.075h-3.1V4.614c0-1.269-.45-2.136-1.572-2.136A1.7,1.7,0,0,0,3.288,3.627a2.156,2.156,0,0,0-.1.766v5.682H.081V3.365C.081,2.136.04,1.109,0,.221H2.695l.143,1.371H2.9A3.6,3.6,0,0,1,5.982,0C8.024,0,9.556,1.35,9.556,4.251Z" transform="translate(5.614 4.446)" fill="#fff"/>
      <path id="Path-2" data-name="Path" d="M1.613,3.063A1.519,1.519,0,0,1,0,1.532,1.532,1.532,0,0,1,1.654,0a1.536,1.536,0,1,1-.041,3.063Z" transform="translate(0.653 0.395)" fill="#fff"/>
      <path id="Path-3" data-name="Path" d="M0,9.853H3.1V0H0Z" transform="translate(0.734 4.667)" fill="#fff"/>
    </g>
  </g>
</svg>
