<svg id="Group_91" data-name="Group 91" xmlns="http://www.w3.org/2000/svg" width="130.293" height="86" viewBox="0 0 130.293 86">
  <path id="Fill_1" data-name="Fill 1" d="M.19,0l-.1.418L0,.833H2.434L1.121,7H2.1L3.409.833H5.838L5.917.414,6,0Z" transform="translate(0 79)" fill="#fefefe"/>
  <path id="Fill_2" data-name="Fill 2" d="M1.926,5A2.106,2.106,0,0,1,.514,4.561,1.543,1.543,0,0,1,0,3.341,2.745,2.745,0,0,1,.023,3c.016-.121.04-.248.07-.377A3.439,3.439,0,0,1,1.207.7,3.035,3.035,0,0,1,3.22,0,1.857,1.857,0,0,1,4.533.435,1.6,1.6,0,0,1,5,1.659,3.685,3.685,0,0,1,4.84,2.78H.99l-.025.15a2.315,2.315,0,0,0-.025.322,1.024,1.024,0,0,0,.293.795,1.287,1.287,0,0,0,.88.264,2.045,2.045,0,0,0,1.032-.262,1.431,1.431,0,0,0,.633-.691H4.64A2.5,2.5,0,0,1,3.608,4.566,3.2,3.2,0,0,1,1.926,5ZM2.935.715a1.684,1.684,0,0,0-1.192.509,2.51,2.51,0,0,0-.6.922H4.1a3.548,3.548,0,0,0,.02-.375,1,1,0,0,0-.3-.786A1.291,1.291,0,0,0,2.935.715Z" transform="translate(5 81)" fill="#fefefe"/>
  <path id="Fill_4" data-name="Fill 4" d="M6.343,0H5.691L1.669,3.387,2.359,0H1.426L0,7H.935l.5-2.455,1.3-1.069L4.432,7h1.2L3.578,2.8,7,0Z" transform="translate(13 79)" fill="#fefefe"/>
  <g id="Group_11" data-name="Group 11" transform="translate(19.092 81.275)">
    <path id="Fill_5" data-name="Fill 5" d="M1.243,4.725a1.4,1.4,0,0,1-.909-.274A.911.911,0,0,1,0,3.708,1.506,1.506,0,0,1,.473,2.6a2.079,2.079,0,0,1,1.237-.546l.956-.113.41-.059a.593.593,0,0,0,.346-.165.721.721,0,0,0,.184-.369l0-.013A.483.483,0,0,0,3.461.8a1.318,1.318,0,0,0-.77-.17,1.455,1.455,0,0,0-.8.206,1.315,1.315,0,0,0-.487.635H.685a2.115,2.115,0,0,1,.8-1.121A2.6,2.6,0,0,1,2.927,0,1.832,1.832,0,0,1,4.162.334.828.828,0,0,1,4.419.98a1.436,1.436,0,0,1-.04.355L3.834,3.84a.2.2,0,0,0,.038.18.214.214,0,0,0,.175.07,1.012,1.012,0,0,0,.108-.007c.054-.007.1-.015.149-.025L4.188,4.6c-.079.026-.164.048-.253.067a1.175,1.175,0,0,1-.214.025.647.647,0,0,1-.585-.242.862.862,0,0,1-.1-.421A2.779,2.779,0,0,1,2.8,4.22,2.624,2.624,0,0,1,1.243,4.725ZM3.39,2.331a3.261,3.261,0,0,1-.772.2l-.742.1a1.367,1.367,0,0,0-.763.312.821.821,0,0,0-.274.634.443.443,0,0,0,.181.382.829.829,0,0,0,.508.136,2.024,2.024,0,0,0,1.119-.321,1.378,1.378,0,0,0,.506-.529,1.527,1.527,0,0,0,.065-.18,2.1,2.1,0,0,0,.066-.249l.108-.489Z" transform="translate(0 0)" fill="#fefefe"/>
    <path id="Fill_7" data-name="Fill 7" d="M.869,2.953a.94.94,0,0,0,.067.736.684.684,0,0,0,.609.252,1.46,1.46,0,0,0,1.1-.438,2.752,2.752,0,0,0,.617-1.347L3.734,0h.788L3.56,4.471H2.809l.145-.7a2.886,2.886,0,0,1-.23.251,1.953,1.953,0,0,1-1.386.571A1.4,1.4,0,0,1,.209,4.2.98.98,0,0,1,0,3.533a2.278,2.278,0,0,1,.057-.484L.716,0h.79Z" transform="translate(5.265 0.133)" fill="#fefefe"/>
    <path id="Fill_9" data-name="Fill 9" d="M.965.134h.754L1.57.83,1.784.613A2,2,0,0,1,3.177,0,1.4,1.4,0,0,1,4.31.39a1.338,1.338,0,0,1,.157,1.166L3.809,4.6h-.79l.632-2.932A.972.972,0,0,0,3.594.926a.7.7,0,0,0-.62-.241,1.476,1.476,0,0,0-1.106.431,2.68,2.68,0,0,0-.613,1.329L.79,4.6H0Z" transform="translate(9.972)" fill="#fefefe"/>
  </g>
  <path id="Fill_12" data-name="Fill 12" d="M.74,7H0L.9,1.9h.74L.74,7ZM1.828.966H1.084L1.256,0H2L1.828.965Z" transform="translate(34 79)" fill="#fefefe"/>
  <g id="Group_33" data-name="Group 33" transform="translate(36.536 79.193)">
    <path id="Fill_13" data-name="Fill 13" d="M1.373,0H2.19L1.676,2.507l.166-.177a2.033,2.033,0,0,1,1.445-.668,1.412,1.412,0,0,1,1.175.425,1.518,1.518,0,0,1,.163,1.269l-.683,3.32H3.125l.656-3.192a1.11,1.11,0,0,0-.059-.814.71.71,0,0,0-.641-.263,1.491,1.491,0,0,0-1.145.47A2.992,2.992,0,0,0,1.3,4.323L.817,6.675H0Z" fill="#fefefe"/>
    <path id="Fill_15" data-name="Fill 15" d="M1.765,5.145A1.792,1.792,0,0,1,.472,4.694,1.686,1.686,0,0,1,0,3.438a3.288,3.288,0,0,1,.022-.353c.014-.12.035-.247.064-.388A3.672,3.672,0,0,1,1.106.715,2.6,2.6,0,0,1,2.952,0a1.593,1.593,0,0,1,1.2.447,1.759,1.759,0,0,1,.428,1.26,4.251,4.251,0,0,1-.147,1.154H.907l-.023.154a2.958,2.958,0,0,0-.023.332,1.125,1.125,0,0,0,.269.817,1.093,1.093,0,0,0,.806.272,1.723,1.723,0,0,0,.947-.269,1.432,1.432,0,0,0,.58-.711h.79A2.508,2.508,0,0,1,3.307,4.7,2.69,2.69,0,0,1,1.765,5.145ZM2.691.736A1.468,1.468,0,0,0,1.6,1.258a2.654,2.654,0,0,0-.545.949h2.7c.012-.121.018-.248.018-.386A1.106,1.106,0,0,0,3.5,1.012,1.1,1.1,0,0,0,2.691.736Z" transform="translate(5.32 1.662)" fill="#fefefe"/>
    <path id="Fill_17" data-name="Fill 17" d="M1,.145h.78l-.189.9A4.138,4.138,0,0,1,2.006.55,1.677,1.677,0,0,1,3.2,0a.809.809,0,0,1,.228.032L3.238.881H2.944a1.5,1.5,0,0,0-.993.373,1.627,1.627,0,0,0-.559.935L.817,5.014H0Z" transform="translate(10.399 1.661)" fill="#fefefe"/>
    <path id="Fill_19" data-name="Fill 19" d="M1.286,5.145a1.4,1.4,0,0,1-.941-.3A1.017,1.017,0,0,1,0,4.037,1.686,1.686,0,0,1,.49,2.829a2.106,2.106,0,0,1,1.282-.594l.989-.123.424-.064a.593.593,0,0,0,.357-.178.8.8,0,0,0,.19-.4l0-.014A.545.545,0,0,0,3.583.877a1.31,1.31,0,0,0-.8-.186,1.45,1.45,0,0,0-.833.225,1.42,1.42,0,0,0-.5.692H.709A2.306,2.306,0,0,1,1.541.386,2.583,2.583,0,0,1,3.03,0,1.826,1.826,0,0,1,4.307.364a.923.923,0,0,1,.266.7,1.59,1.59,0,0,1-.041.386L3.968,4.182a.234.234,0,0,0,.04.2.214.214,0,0,0,.182.076A.951.951,0,0,0,4.3,4.446c.051-.007.107-.017.154-.027l-.121.589a2.547,2.547,0,0,1-.263.073,1.121,1.121,0,0,1-.221.027.656.656,0,0,1-.606-.264.962.962,0,0,1-.1-.458A3.121,3.121,0,0,1,2.9,4.6,2.627,2.627,0,0,1,1.286,5.145ZM3.51,2.539a3.33,3.33,0,0,1-.8.222l-.768.109a1.375,1.375,0,0,0-.789.34.919.919,0,0,0-.285.69.5.5,0,0,0,.187.415.828.828,0,0,0,.526.148,2.022,2.022,0,0,0,1.158-.35,1.471,1.471,0,0,0,.524-.577,1.574,1.574,0,0,0,.068-.2A2.445,2.445,0,0,0,3.4,3.07Z" transform="translate(13.331 1.662)" fill="#fefefe"/>
    <path id="Fill_21" data-name="Fill 21" d="M1.286,6.217a1.4,1.4,0,0,1-.941-.3A1.017,1.017,0,0,1,0,5.109,1.686,1.686,0,0,1,.49,3.9a2.106,2.106,0,0,1,1.282-.594l.989-.123.424-.064a.6.6,0,0,0,.357-.178.8.8,0,0,0,.19-.4l0-.013a.545.545,0,0,0-.151-.577,1.305,1.305,0,0,0-.8-.186,1.45,1.45,0,0,0-.833.225,1.42,1.42,0,0,0-.5.692H.709a2.3,2.3,0,0,1,.832-1.221,2.583,2.583,0,0,1,1.49-.386,1.83,1.83,0,0,1,1.277.363.927.927,0,0,1,.266.7,1.59,1.59,0,0,1-.041.386L3.968,5.254a.234.234,0,0,0,.04.2.216.216,0,0,0,.182.076A.951.951,0,0,0,4.3,5.518c.045-.006.095-.015.154-.028l-.121.59a2.546,2.546,0,0,1-.263.073,1.2,1.2,0,0,1-.221.027.656.656,0,0,1-.606-.264.967.967,0,0,1-.1-.458,3.126,3.126,0,0,1-.244.209A2.627,2.627,0,0,1,1.286,6.217ZM3.51,3.611a3.33,3.33,0,0,1-.8.222l-.768.109a1.382,1.382,0,0,0-.79.34.921.921,0,0,0-.284.69.5.5,0,0,0,.187.415.829.829,0,0,0,.526.148,2.022,2.022,0,0,0,1.158-.349,1.471,1.471,0,0,0,.524-.577,1.573,1.573,0,0,0,.068-.2A2.445,2.445,0,0,0,3.4,4.142ZM4.448.568H1.639L1.751,0H4.56L4.448.567Z" transform="translate(21.044 0.59)" fill="#fefefe"/>
    <path id="Fill_23" data-name="Fill 23" d="M.9,6.675H0L1.372,0H4.633A2.058,2.058,0,0,1,5.891.336a1.132,1.132,0,0,1,.45.944,2.247,2.247,0,0,1-.7,1.7,2.375,2.375,0,0,1-.583.4,1.088,1.088,0,0,1,.3.19,1.158,1.158,0,0,1,.212,1.086l-.212,1.2a1.08,1.08,0,0,0-.013.422.428.428,0,0,0,.194.236L5.51,6.67H4.42a3.7,3.7,0,0,1,.027-.531c.025-.236.057-.464.1-.677l.087-.494a1.106,1.106,0,0,0-.107-.89,1,1,0,0,0-.811-.273H1.484L.9,6.675ZM2.114.768,1.647,3.038H3.866a1.5,1.5,0,0,0,1.119-.4A1.577,1.577,0,0,0,5.378,1.49.625.625,0,0,0,5.124.956,1.192,1.192,0,0,0,4.408.768Z" transform="translate(29.004)" fill="#fefefe"/>
    <path id="Fill_25" data-name="Fill 25" d="M1.778,5.145a1.725,1.725,0,0,1-1.3-.5A1.9,1.9,0,0,1,0,3.284,3.452,3.452,0,0,1,.823.952,2.577,2.577,0,0,1,2.836,0,1.771,1.771,0,0,1,4.149.484a1.784,1.784,0,0,1,.48,1.31v.018A3.5,3.5,0,0,1,3.8,4.178,2.581,2.581,0,0,1,1.778,5.145ZM2.691.708a1.579,1.579,0,0,0-1.3.718A2.91,2.91,0,0,0,.867,3.175a1.41,1.41,0,0,0,.277.93.961.961,0,0,0,.78.332,1.583,1.583,0,0,0,1.3-.723,2.9,2.9,0,0,0,.534-1.766,1.363,1.363,0,0,0-.28-.914A.993.993,0,0,0,2.691.708Z" transform="translate(35.638 1.661)" fill="#fefefe"/>
    <path id="Fill_27" data-name="Fill 27" d="M1.373,0H2.19L1.675,2.507l.167-.177a2.033,2.033,0,0,1,1.445-.668,1.412,1.412,0,0,1,1.175.425,1.521,1.521,0,0,1,.163,1.269l-.683,3.32H3.124L3.78,3.483a1.106,1.106,0,0,0-.058-.814.71.71,0,0,0-.642-.263,1.491,1.491,0,0,0-1.144.47A2.985,2.985,0,0,0,1.3,4.323L.817,6.675H0Z" transform="translate(40.614)" fill="#fefefe"/>
    <path id="Fill_29" data-name="Fill 29" d="M1.765,5.145A1.792,1.792,0,0,1,.472,4.694,1.686,1.686,0,0,1,0,3.438a3.288,3.288,0,0,1,.022-.353c.015-.128.036-.259.064-.388A3.665,3.665,0,0,1,1.106.715,2.6,2.6,0,0,1,2.952,0a1.589,1.589,0,0,1,1.2.447,1.756,1.756,0,0,1,.428,1.26,4.251,4.251,0,0,1-.147,1.154H.907l-.023.154a2.761,2.761,0,0,0-.023.332,1.125,1.125,0,0,0,.269.817,1.093,1.093,0,0,0,.806.272,1.723,1.723,0,0,0,.947-.269,1.432,1.432,0,0,0,.58-.711h.79A2.508,2.508,0,0,1,3.307,4.7,2.69,2.69,0,0,1,1.765,5.145ZM2.691.736A1.468,1.468,0,0,0,1.6,1.258a2.639,2.639,0,0,0-.545.949h2.7c.012-.121.018-.248.018-.386A1.106,1.106,0,0,0,3.5,1.012,1.1,1.1,0,0,0,2.691.736Z" transform="translate(45.934 1.662)" fill="#fefefe"/>
    <path id="Fill_31" data-name="Fill 31" d="M1.779,5.145a1.729,1.729,0,0,1-1.3-.5A1.9,1.9,0,0,1,0,3.284,3.452,3.452,0,0,1,.823.952,2.58,2.58,0,0,1,2.836,0,1.775,1.775,0,0,1,4.15.484a1.787,1.787,0,0,1,.479,1.31v.018A3.5,3.5,0,0,1,3.8,4.178,2.58,2.58,0,0,1,1.779,5.145ZM2.691.708a1.579,1.579,0,0,0-1.3.718A2.91,2.91,0,0,0,.867,3.175a1.41,1.41,0,0,0,.277.93.961.961,0,0,0,.78.332,1.586,1.586,0,0,0,1.3-.723,2.9,2.9,0,0,0,.533-1.766,1.363,1.363,0,0,0-.28-.914A.993.993,0,0,0,2.691.708Z" transform="translate(53.637 1.661)" fill="#fefefe"/>
  </g>
  <path id="Fill_34" data-name="Fill 34" d="M7.539,0H7.081L4.8,5.662H4.8L4.464,0H3.531L1,5.738H1L.921,0H0L.317,7h.9L3.779,1.161,4.122,7h.9L8,0Z" transform="translate(98 79)" fill="#fefefe"/>
  <path id="Fill_35" data-name="Fill 35" d="M1.407,5a1.658,1.658,0,0,1-1.029-.29A.939.939,0,0,1,0,3.924,1.553,1.553,0,0,1,.536,2.75a2.423,2.423,0,0,1,1.4-.578l1.081-.12.464-.062a.679.679,0,0,0,.39-.174.738.738,0,0,0,.208-.391l0-.013A.493.493,0,0,0,3.916.852,1.567,1.567,0,0,0,3.045.671a1.733,1.733,0,0,0-.91.218,1.4,1.4,0,0,0-.551.673H.776A2.256,2.256,0,0,1,1.685.375,3.1,3.1,0,0,1,3.312,0a2.179,2.179,0,0,1,1.4.353A.849.849,0,0,1,5,1.037a1.387,1.387,0,0,1-.045.376L4.338,4.064a.208.208,0,0,0,.042.19.251.251,0,0,0,.2.075c.027,0,.066,0,.122-.008s.111-.015.169-.027l-.132.574c-.1.029-.193.052-.287.07a1.4,1.4,0,0,1-.243.026.752.752,0,0,1-.661-.256.844.844,0,0,1-.109-.445,3.257,3.257,0,0,1-.266.2A3.117,3.117,0,0,1,1.407,5Zm2.43-2.533a3.958,3.958,0,0,1-.874.216l-.84.106a1.605,1.605,0,0,0-.863.331.846.846,0,0,0-.311.671.465.465,0,0,0,.2.4.987.987,0,0,0,.574.144A2.411,2.411,0,0,0,2.994,4a1.492,1.492,0,0,0,.572-.56,1.408,1.408,0,0,0,.074-.19,2.151,2.151,0,0,0,.074-.265Z" transform="translate(106 81)" fill="#fefefe"/>
  <path id="Fill_37" data-name="Fill 37" d="M.74,7H0L.9,1.9h.741L.74,7ZM1.828.966H1.084L1.256,0H2L1.828.965Z" transform="translate(111 79)" fill="#fefefe"/>
  <path id="Fill_38" data-name="Fill 38" d="M1.8,0H1.385L0,7H.826l.382-1.951L2,4.392,3.012,7H4.076L2.712,3.8,5,1.9H3.931L1.41,4.022,2.21,0Z" transform="translate(113 79)" fill="#fefefe"/>
  <g id="Group_55" data-name="Group 55" transform="translate(0.064 30.718)">
    <path id="Fill_39" data-name="Fill 39" d="M1.285,5.145a1.393,1.393,0,0,1-.94-.3A1.017,1.017,0,0,1,0,4.037,1.69,1.69,0,0,1,.49,2.829a2.1,2.1,0,0,1,1.279-.594l.989-.123.423-.064a.592.592,0,0,0,.356-.178.8.8,0,0,0,.19-.4l0-.014A.545.545,0,0,0,3.578.877a1.312,1.312,0,0,0-.8-.186A1.443,1.443,0,0,0,1.95.915a1.42,1.42,0,0,0-.5.692H.708A2.306,2.306,0,0,1,1.539.386,2.578,2.578,0,0,1,3.026,0,1.825,1.825,0,0,1,4.3.364a.923.923,0,0,1,.265.7,1.59,1.59,0,0,1-.04.386L3.964,4.182a.231.231,0,0,0,.039.2.217.217,0,0,0,.182.076A.924.924,0,0,0,4.3,4.446c.049-.006.1-.017.155-.027l-.122.589a2.461,2.461,0,0,1-.262.073,1.121,1.121,0,0,1-.221.027.654.654,0,0,1-.6-.264.951.951,0,0,1-.1-.458A2.945,2.945,0,0,1,2.9,4.6,2.619,2.619,0,0,1,1.285,5.145Zm2.22-2.606h0a3.336,3.336,0,0,1-.8.222L1.94,2.87a1.379,1.379,0,0,0-.789.34.921.921,0,0,0-.284.69.5.5,0,0,0,.186.415.826.826,0,0,0,.525.148,2.015,2.015,0,0,0,1.156-.35,1.462,1.462,0,0,0,.523-.577,1.577,1.577,0,0,0,.067-.2,2.446,2.446,0,0,0,.067-.272l.113-.531Z" transform="translate(117.703 50.137)" fill="#fefefe"/>
    <path id="Fill_41" data-name="Fill 41" d="M1.422,6.23A4.7,4.7,0,0,1,.8,6.289a.79.79,0,0,1-.7-.261,1.141,1.141,0,0,1-.06-.847L.7,2.039H.06L.2,1.362H.831L1.115,0h.817L1.647,1.362h.77l-.135.677h-.77L.863,5.181a.325.325,0,0,0,.06.31.5.5,0,0,0,.354.1h.274Z" transform="translate(123.171 48.92)" fill="#fefefe"/>
    <path id="Fill_43" data-name="Fill 43" d="M1.776,5.145a1.723,1.723,0,0,1-1.3-.5A1.9,1.9,0,0,1,0,3.284,3.455,3.455,0,0,1,.822.952,2.574,2.574,0,0,1,2.831,0,1.774,1.774,0,0,1,4.144.484a1.79,1.79,0,0,1,.477,1.31v.018A3.505,3.505,0,0,1,3.8,4.178,2.575,2.575,0,0,1,1.776,5.145ZM2.686.708a1.575,1.575,0,0,0-1.3.718A2.917,2.917,0,0,0,.864,3.175a1.414,1.414,0,0,0,.277.93.962.962,0,0,0,.779.332,1.582,1.582,0,0,0,1.3-.723,2.91,2.91,0,0,0,.532-1.766,1.363,1.363,0,0,0-.28-.914A.992.992,0,0,0,2.686.708Z" transform="translate(125.608 50.137)" fill="#fefefe"/>
    <path id="Fill_45" data-name="Fill 45" d="M41.3,14.416C37.047,8.867,34,3.622,30.286,1.5A8.111,8.111,0,0,0,26.874.111,7.266,7.266,0,0,0,24.382.105a8.059,8.059,0,0,0-3.9,1.72c-3.48,2.3-6.439,7.3-10.489,12.59C6.279,19.27,0,22.208,0,22.208H51.287s-6.276-2.938-9.99-7.792" transform="translate(39.408 9.375)" fill="#fefefe"/>
    <path id="Fill_47" data-name="Fill 47" d="M9.2,7.815c3.914,5.574,6.722,10.838,10.144,12.969a6.815,6.815,0,0,0,3.066,1.389,3.731,3.731,0,0,0,1.791.005A7.132,7.132,0,0,0,27.8,20.456c3.2-2.31,5.968-7.6,9.718-12.889C41.874,1.408,41.489,2.075,43.328,0H0A28.726,28.726,0,0,1,9.2,7.815" transform="translate(73.463)" fill="#fefefe"/>
    <path id="Fill_49" data-name="Fill 49" d="M34.128,7.815C30.214,13.389,27.4,18.653,23.984,20.785a6.805,6.805,0,0,1-3.068,1.389,3.724,3.724,0,0,1-1.79.005,7.115,7.115,0,0,1-3.592-1.723c-3.2-2.31-5.97-7.6-9.719-12.889C1.457,1.408,1.844,2.075,0,0H43.334a28.688,28.688,0,0,0-9.206,7.815" transform="translate(13.937)" fill="#fefefe"/>
    <path id="Fill_51" data-name="Fill 51" d="M0,26.691H27.031a34.814,34.814,0,0,1-10.917-9.872C11.366,9.748,7.331.611,0,0Z" transform="translate(0 4.891)" fill="#fefefe"/>
    <path id="Fill_53" data-name="Fill 53" d="M27.031,26.691H0a34.842,34.842,0,0,0,10.916-9.872C15.663,9.748,19.7.611,27.031,0Z" transform="translate(103.093 4.891)" fill="#fefefe"/>
  </g>
  <path id="Fill_56" data-name="Fill 56" d="M29.343,0H26.686L22.509,18.148h0L18.868,0h-5.6L9.67,18.29,5.474,0H0L7,25h5L15.954,5.323,20,25h5L32,0Z" fill="#fefefe"/>
  <path id="Fill_57" data-name="Fill 57" d="M5.578,19a5.7,5.7,0,0,1-4.046-1.436A4.951,4.951,0,0,1,0,13.79,5.6,5.6,0,0,1,1.382,9.832a6.625,6.625,0,0,1,4.03-1.867l3.146-.431a6.774,6.774,0,0,0,2.048-.564,1.134,1.134,0,0,0,.541-.6,1.672,1.672,0,0,0,.142-.879A1.614,1.614,0,0,0,10.507,4.3a4.439,4.439,0,0,0-2.347-.514,3.158,3.158,0,0,0-2.131.663,2.5,2.5,0,0,0-.816,1.875H.634A6.064,6.064,0,0,1,2.8,1.577,9.488,9.488,0,0,1,8.708,0a8.962,8.962,0,0,1,5.337,1.42A4.558,4.558,0,0,1,16,5.3V15.4a5.036,5.036,0,0,0,.2,1.7,1.5,1.5,0,0,0,.8.773v.663H11.839v-.017a11.885,11.885,0,0,1-.417-2.141l-.016-.032A7.309,7.309,0,0,1,5.578,19Zm5.745-9.21a7.811,7.811,0,0,1-2.2.747l-1.764.332a3.67,3.67,0,0,0-1.9.854,2.092,2.092,0,0,0-.648,1.569,2.365,2.365,0,0,0,.581,1.692,2.151,2.151,0,0,0,1.632.614,4.577,4.577,0,0,0,3.663-1.609,2.581,2.581,0,0,0,.45-.929,4.183,4.183,0,0,0,.184-1.2V9.79Z" transform="translate(32 6)" fill="#fefefe"/>
  <path id="Fill_59" data-name="Fill 59" d="M4.965,25H.051V6.633H4.965V25ZM5,4.489H0V0H5V4.488Z" transform="translate(52)" fill="#fefefe"/>
  <path id="Fill_60" data-name="Fill 60" d="M2.409,0H0V25H4.835V19.165l2-2.135L11.251,25H17L10.21,13.515,16.831,6.5H10.865L4.835,13.5V0Z" transform="translate(62)" fill="#fefefe"/>
  <g id="Group_69" data-name="Group 69" transform="translate(0.006 2.255)">
    <path id="Fill_61" data-name="Fill 61" d="M5.7,19.112a5.878,5.878,0,0,1-4.134-1.444A4.943,4.943,0,0,1,0,13.871,5.583,5.583,0,0,1,1.411,9.89,6.814,6.814,0,0,1,5.527,8.012l3.215-.434a7,7,0,0,0,2.093-.567,1.154,1.154,0,0,0,.553-.6,1.679,1.679,0,0,0,.145-.885,1.624,1.624,0,0,0-.8-1.2,4.593,4.593,0,0,0-2.4-.517,3.262,3.262,0,0,0-2.177.668A2.5,2.5,0,0,0,5.324,6.36H.647a6.061,6.061,0,0,1,2.21-4.774A9.808,9.808,0,0,1,8.895,0a9.261,9.261,0,0,1,5.451,1.428,4.564,4.564,0,0,1,2,3.9V15.487a5.017,5.017,0,0,0,.2,1.714,1.527,1.527,0,0,0,.816.777v.668H12.092v-.017a11.835,11.835,0,0,1-.426-2.154l-.017-.033A7.513,7.513,0,0,1,5.7,19.112Zm5.867-9.265A8.047,8.047,0,0,1,9.32,10.6l-1.8.334a3.77,3.77,0,0,0-1.94.859,2.087,2.087,0,0,0-.662,1.578,2.36,2.36,0,0,0,.595,1.7,2.218,2.218,0,0,0,1.667.617,4.708,4.708,0,0,0,3.741-1.619,2.588,2.588,0,0,0,.459-.935,4.137,4.137,0,0,0,.187-1.2Z" transform="translate(79.728 4.406)" fill="#fefefe"/>
    <path id="Fill_63" data-name="Fill 63" d="M10.425,23.151q-1.223.1-3.01.1a5.966,5.966,0,0,1-3.716-.91,3.6,3.6,0,0,1-1.131-2.979V8.246H0V4.892H2.568V0H7.449V4.892h2.975V8.246H7.449V18.561a.851.851,0,0,0,.382.835,4.042,4.042,0,0,0,1.59.2h1Z" transform="translate(98.436)" fill="#fefefe"/>
    <path id="Fill_65" data-name="Fill 65" d="M9.456,19.112a9.371,9.371,0,0,1-6.9-2.554A9.338,9.338,0,0,1,0,9.665,9.68,9.68,0,0,1,2.56,2.613,9.255,9.255,0,0,1,9.456,0a9.271,9.271,0,0,1,6.922,2.613,9.7,9.7,0,0,1,2.551,7.052,9.36,9.36,0,0,1-2.551,6.893A9.388,9.388,0,0,1,9.456,19.112Zm0-15.107A3.986,3.986,0,0,0,6.148,5.433a6.652,6.652,0,0,0-1.13,4.181,6.42,6.42,0,0,0,1.13,4.09,4.019,4.019,0,0,0,3.308,1.4,4.042,4.042,0,0,0,3.316-1.4,6.39,6.39,0,0,0,1.139-4.09,6.621,6.621,0,0,0-1.139-4.181A4.01,4.01,0,0,0,9.456,4.006Z" transform="translate(110.886 4.406)" fill="#fefefe"/>
    <path id="Fill_67" data-name="Fill 67" d="M1.283,9.447H0V0H4.413a3.54,3.54,0,0,1,2.3.653A2.35,2.35,0,0,1,7.5,2.564a2.427,2.427,0,0,1-.82,1.94,2.887,2.887,0,0,1-.445.31l.213.1a1.831,1.831,0,0,1,.9,1.664L7.393,8.3a1.518,1.518,0,0,0,.111.61.784.784,0,0,0,.374.321V9.44H6.3a2.737,2.737,0,0,1-.1-.6c-.035-.331-.061-.7-.077-1.087L6.089,7a1.727,1.727,0,0,0-.432-1.255A1.926,1.926,0,0,0,4.33,5.373H1.283V9.446Zm0-8.375V4.267H4.458a1.858,1.858,0,0,0,1.3-.389,1.627,1.627,0,0,0,.413-1.23,1.508,1.508,0,0,0-.437-1.2,2.069,2.069,0,0,0-1.376-.38Z" transform="translate(0 64.217)" fill="#fefefe"/>
  </g>
  <path id="Fill_70" data-name="Fill 70" d="M0,9V0H6.929V1.077H1.283V3.827H6.439V4.9H1.283V7.923H7V9Z" transform="translate(10 66)" fill="#fefefe"/>
  <path id="Fill_71" data-name="Fill 71" d="M4.584,10A4.3,4.3,0,0,1,1.266,8.623,5.133,5.133,0,0,1,0,5.007,5.089,5.089,0,0,1,1.294,1.38,4.424,4.424,0,0,1,4.679,0,4.5,4.5,0,0,1,7.456.871,3.314,3.314,0,0,1,8.822,3.1H7.534a2.2,2.2,0,0,0-.952-1.455A3.5,3.5,0,0,0,4.6,1.135,2.886,2.886,0,0,0,2.265,2.209a4.264,4.264,0,0,0-.892,2.817,4.3,4.3,0,0,0,.861,2.865A3.018,3.018,0,0,0,4.665,8.9a3.113,3.113,0,0,0,2.46-1.071,2.988,2.988,0,0,0,.268-.354,2.371,2.371,0,0,0,.272-.7,3.636,3.636,0,0,0,.111-.857V5.8H4.686V4.716H9V9.735H8.169L7.847,8.542l-.073.084A4.051,4.051,0,0,1,4.584,10" transform="translate(18 66)" fill="#fefefe"/>
  <path id="Fill_73" data-name="Fill 73" d="M0,0H1V9H0Z" transform="translate(29 66)" fill="#fefefe"/>
  <path id="Fill_74" data-name="Fill 74" d="M4.5,10A4.2,4.2,0,0,1,1.243,8.623,5.216,5.216,0,0,1,0,5.007,5.232,5.232,0,0,1,1.243,1.381,4.191,4.191,0,0,1,4.5,0,4.194,4.194,0,0,1,7.759,1.381,5.239,5.239,0,0,1,9,5.007,5.223,5.223,0,0,1,7.759,8.623,4.2,4.2,0,0,1,4.5,10Zm0-8.865A2.882,2.882,0,0,0,2.174,2.2a4.262,4.262,0,0,0-.887,2.8A4.241,4.241,0,0,0,2.174,7.8,2.886,2.886,0,0,0,4.5,8.865,2.9,2.9,0,0,0,6.826,7.8a4.245,4.245,0,0,0,.886-2.794,4.266,4.266,0,0,0-.886-2.8A2.892,2.892,0,0,0,4.5,1.135Z" transform="translate(32 66)" fill="#fefefe"/>
  <path id="Fill_76" data-name="Fill 76" d="M1.316,9H0V0H1.638L6.684,7.314V0H8V9H6.506L1.316,1.658Z" transform="translate(42 66)" fill="#fefefe"/>
  <path id="Fill_77" data-name="Fill 77" d="M1.253,9H0L3.388,0H4.775L8,9H6.7L5.782,6.392H2.2L1.254,9ZM4.025,1.327,2.582,5.314H5.407Z" transform="translate(51 66)" fill="#fefefe"/>
  <path id="Fill_78" data-name="Fill 78" d="M0,9V0H1.265V7.923H6V9Z" transform="translate(61 66)" fill="#fefefe"/>
  <g id="Group_85" data-name="Group 85" transform="translate(71.191 66.241)">
    <path id="Fill_79" data-name="Fill 79" d="M8.528,6.348A4.458,4.458,0,0,1,7.165,9.142a4.035,4.035,0,0,1-2.819,1.012A3.963,3.963,0,0,1,1.18,8.781,5.481,5.481,0,0,1,0,5.084a5.373,5.373,0,0,1,1.225-3.7A4.183,4.183,0,0,1,4.515,0,4.139,4.139,0,0,1,7.188.838,3.462,3.462,0,0,1,8.443,3.151H7.188A2.3,2.3,0,0,0,6.3,1.674,2.958,2.958,0,0,0,4.5,1.153,2.8,2.8,0,0,0,2.2,2.217a4.445,4.445,0,0,0-.856,2.866A4.61,4.61,0,0,0,2.134,8a2.762,2.762,0,0,0,2.3,1A2.612,2.612,0,0,0,6.293,8.31a3.5,3.5,0,0,0,.98-1.962Z" transform="translate(0 0)" fill="#fefefe"/>
    <path id="Fill_81" data-name="Fill 81" d="M4.678,10.154a4.417,4.417,0,0,1-3.385-1.4A5.217,5.217,0,0,1,0,5.083,5.235,5.235,0,0,1,1.293,1.4,4.41,4.41,0,0,1,4.678,0,4.414,4.414,0,0,1,8.073,1.4,5.242,5.242,0,0,1,9.364,5.083,5.223,5.223,0,0,1,8.073,8.755,4.42,4.42,0,0,1,4.678,10.154Zm0-9A3.031,3.031,0,0,0,2.261,2.237a4.264,4.264,0,0,0-.922,2.846A4.24,4.24,0,0,0,2.261,7.92,3.034,3.034,0,0,0,4.678,9,3.044,3.044,0,0,0,7.1,7.92a4.244,4.244,0,0,0,.922-2.837A4.268,4.268,0,0,0,7.1,2.237,3.041,3.041,0,0,0,4.678,1.153Z" transform="translate(9.599)" fill="#fefefe"/>
    <path id="Fill_83" data-name="Fill 83" d="M7.561,6.1a3.78,3.78,0,0,1-1,2.788A3.741,3.741,0,0,1,3.784,9.892,3.814,3.814,0,0,1,.968,8.926,3.828,3.828,0,0,1,0,6.1V0H1.3V6a2.938,2.938,0,0,0,.633,2.041,2.373,2.373,0,0,0,1.85.7,2.361,2.361,0,0,0,1.846-.7A2.945,2.945,0,0,0,6.26,6V0h1.3Z" transform="translate(20.544 0.262)" fill="#fefefe"/>
  </g>
  <path id="Fill_86" data-name="Fill 86" d="M1.316,9H0V0H1.638L6.684,7.314V0H8V9H6.506L1.316,1.658Z" transform="translate(101 66)" fill="#fefefe"/>
  <path id="Fill_87" data-name="Fill 87" d="M8,6.252A4.48,4.48,0,0,1,6.721,9a3.68,3.68,0,0,1-2.645,1,3.641,3.641,0,0,1-2.97-1.352A5.577,5.577,0,0,1,0,5.007,5.462,5.462,0,0,1,1.149,1.358,3.837,3.837,0,0,1,4.236,0,3.762,3.762,0,0,1,6.743.826,3.458,3.458,0,0,1,7.921,3.1H6.743a2.287,2.287,0,0,0-.831-1.455,2.678,2.678,0,0,0-1.695-.513A2.579,2.579,0,0,0,2.06,2.184a4.53,4.53,0,0,0-.8,2.823A4.706,4.706,0,0,0,2,7.877a2.539,2.539,0,0,0,2.16.987A2.385,2.385,0,0,0,5.9,8.184a3.507,3.507,0,0,0,.919-1.932Z" transform="translate(111 66)" fill="#fefefe"/>
  <path id="Fill_89" data-name="Fill 89" d="M0,0H1V9H0Z" transform="translate(121 66)" fill="#fefefe"/>
  <path id="Fill_90" data-name="Fill 90" d="M.628,0H0V9H6V7.923H1.264V0Z" transform="translate(124 66)" fill="#fefefe"/>
</svg>
