<svg id="pdf" xmlns="http://www.w3.org/2000/svg" width="30" height="34" viewBox="0 0 30 34">
  <g id="flaticon1552944878-svg" transform="translate(0.031 0)">
    <path id="Path" d="M2.671,1.453C2.671.543,2.04,0,.925,0A3.818,3.818,0,0,0,0,.088V3.01a3.466,3.466,0,0,0,.748.058C1.938,3.068,2.671,2.466,2.671,1.453Z" transform="translate(5.235 15.861)" fill="#a6a6a6"/>
    <path id="Path-2" data-name="Path" d="M1.013,0A4.659,4.659,0,0,0,0,.088V6.562a4.062,4.062,0,0,0,.779.045c2.026.014,3.347-1.1,3.347-3.465A2.838,2.838,0,0,0,1.013,0Z" transform="translate(13.795 15.891)" fill="#a6a6a6"/>
    <path id="Shape" d="M4.03,33.791a1.326,1.326,0,0,1-1.325-1.325V25.724H1.894A1.894,1.894,0,0,1,0,23.83v-9.85a1.894,1.894,0,0,1,1.894-1.894h.812V1.325A1.326,1.326,0,0,1,4.03,0H20.042a.652.652,0,0,1,.152.019l.036.012a.691.691,0,0,1,.131.055c.014.008.029.016.043.026a.618.618,0,0,1,.132.111s0,0,.005,0l6.515,7.442a.65.65,0,0,1,.157.429.512.512,0,0,1,.007.074v3.915h.812a1.894,1.894,0,0,1,1.894,1.895V23.83a1.894,1.894,0,0,1-1.894,1.894h-.812v6.743A1.327,1.327,0,0,1,25.9,33.791Z" fill="#98c03c"/>
  </g>
  <rect id="Rectangle" width="27" height="12" transform="translate(2 13)" fill="#98c03c"/>
  <path id="PDF-2" data-name="PDF" d="M19.6,8.484H17.544V0h5.532V1.632H19.6v1.86h2.688v1.56H19.6V8.483Zm-8.3,0h-3.2V0h3.2a5,5,0,0,1,2.363.528,3.7,3.7,0,0,1,1.53,1.488,4.481,4.481,0,0,1,.535,2.208,4.514,4.514,0,0,1-.535,2.214A3.752,3.752,0,0,1,13.65,7.944,4.925,4.925,0,0,1,11.292,8.484ZM10.14,1.8V6.648h.972a2.6,2.6,0,0,0,1.866-.636,2.366,2.366,0,0,0,.666-1.788,2.365,2.365,0,0,0-.666-1.787A2.6,2.6,0,0,0,11.112,1.8ZM2.052,8.484H0V0H3.324a3.242,3.242,0,0,1,2.3.75A2.665,2.665,0,0,1,6.42,2.772a2.8,2.8,0,0,1-.354,1.41,2.471,2.471,0,0,1-1.05.972,3.716,3.716,0,0,1-1.692.354H2.052V8.483Zm0-6.828V3.864H3.1c.82,0,1.236-.367,1.236-1.092,0-.741-.416-1.116-1.236-1.116Z" transform="translate(3.708 14.516)" fill="#fff"/>
</svg>
