<svg xmlns="http://www.w3.org/2000/svg" width="19" height="16" viewBox="0 0 19 16">
  <path id="Page_1" data-name="Page 1" d="M19,1.893a7.623,7.623,0,0,1-2.239.636A4.029,4.029,0,0,0,18.475.3,7.64,7.64,0,0,1,16,1.275,3.829,3.829,0,0,0,13.153,0a3.97,3.97,0,0,0-3.9,4.038,4.182,4.182,0,0,0,.1.921A10.946,10.946,0,0,1,1.321.739,4.139,4.139,0,0,0,.794,2.77,4.078,4.078,0,0,0,2.528,6.132,3.79,3.79,0,0,1,.762,5.626v.051A4.009,4.009,0,0,0,3.889,9.637a3.748,3.748,0,0,1-1.026.142,3.812,3.812,0,0,1-.733-.071,3.926,3.926,0,0,0,3.642,2.805A7.653,7.653,0,0,1,.93,14.242,7.563,7.563,0,0,1,0,14.185,10.75,10.75,0,0,0,5.975,16c7.171,0,11.091-6.154,11.091-11.493,0-.174,0-.348-.011-.522A8.087,8.087,0,0,0,19,1.893Z" fill="#fff"/>
</svg>
